<svg id="visual" viewBox="0 0 900 600" width="900" height="600" xmlns="http://www.w3.org/2000/svg" xmlns:xlink="http://www.w3.org/1999/xlink" version="1.1"><rect width="900" height="600" fill="#ffffff"></rect><g><g transform="translate(333 515)"><path d="M0 -34.7L30 -17.3L30 17.3L0 34.7L-30 17.3L-30 -17.3Z" fill="#e3e3e3"></path></g><g transform="translate(182 437)"><path d="M0 -33L28.6 -16.5L28.6 16.5L0 33L-28.6 16.5L-28.6 -16.5Z" fill="#e3e3e3"></path></g><g transform="translate(420 424)"><path d="M0 -21L18.2 -10.5L18.2 10.5L0 21L-18.2 10.5L-18.2 -10.5Z" fill="#e3e3e3"></path></g><g transform="translate(50 275)"><path d="M0 -17L14.7 -8.5L14.7 8.5L0 17L-14.7 8.5L-14.7 -8.5Z" fill="#e3e3e3"></path></g><g transform="translate(479 265)"><path d="M0 -18L15.6 -9L15.6 9L0 18L-15.6 9L-15.6 -9Z" fill="#e3e3e3"></path></g><g transform="translate(842 464)"><path d="M0 -22L19.1 -11L19.1 11L0 22L-19.1 11L-19.1 -11Z" fill="#e3e3e3"></path></g><g transform="translate(115 569)"><path d="M0 -21L18.2 -10.5L18.2 10.5L0 21L-18.2 10.5L-18.2 -10.5Z" fill="#e3e3e3"></path></g><g transform="translate(472 577)"><path d="M0 -17L14.7 -8.5L14.7 8.5L0 17L-14.7 8.5L-14.7 -8.5Z" fill="#e3e3e3"></path></g><g transform="translate(345 166)"><path d="M0 -18L15.6 -9L15.6 9L0 18L-15.6 9L-15.6 -9Z" fill="#e3e3e3"></path></g><g transform="translate(440 193)"><path d="M0 -23L19.9 -11.5L19.9 11.5L0 23L-19.9 11.5L-19.9 -11.5Z" fill="#e3e3e3"></path></g><g transform="translate(84 142)"><path d="M0 -23L19.9 -11.5L19.9 11.5L0 23L-19.9 11.5L-19.9 -11.5Z" fill="#e3e3e3"></path></g><g transform="translate(612 237)"><path d="M0 -28L24.2 -14L24.2 14L0 28L-24.2 14L-24.2 -14Z" fill="#e3e3e3"></path></g><g transform="translate(573 308)"><path d="M0 -17L14.7 -8.5L14.7 8.5L0 17L-14.7 8.5L-14.7 -8.5Z" fill="#e3e3e3"></path></g><g transform="translate(873 243)"><path d="M0 -17L14.7 -8.5L14.7 8.5L0 17L-14.7 8.5L-14.7 -8.5Z" fill="#e3e3e3"></path></g><g transform="translate(107 387)"><path d="M0 -25L21.7 -12.5L21.7 12.5L0 25L-21.7 12.5L-21.7 -12.5Z" fill="#e3e3e3"></path></g><g transform="translate(763 518)"><path d="M0 -27L23.4 -13.5L23.4 13.5L0 27L-23.4 13.5L-23.4 -13.5Z" fill="#e3e3e3"></path></g><g transform="translate(631 78)"><path d="M0 -18L15.6 -9L15.6 9L0 18L-15.6 9L-15.6 -9Z" fill="#e3e3e3"></path></g><g transform="translate(238 60)"><path d="M0 -31L26.8 -15.5L26.8 15.5L0 31L-26.8 15.5L-26.8 -15.5Z" fill="#e3e3e3"></path></g><g transform="translate(783 149)"><path d="M0 -24L20.8 -12L20.8 12L0 24L-20.8 12L-20.8 -12Z" fill="#e3e3e3"></path></g><g transform="translate(138 275)"><path d="M0 -17L14.7 -8.5L14.7 8.5L0 17L-14.7 8.5L-14.7 -8.5Z" fill="#e3e3e3"></path></g><g transform="translate(265 181)"><path d="M0 -21L18.2 -10.5L18.2 10.5L0 21L-18.2 10.5L-18.2 -10.5Z" fill="#e3e3e3"></path></g><g transform="translate(618 522)"><path d="M0 -17L14.7 -8.5L14.7 8.5L0 17L-14.7 8.5L-14.7 -8.5Z" fill="#e3e3e3"></path></g><g transform="translate(567 14)"><path d="M0 -32L27.7 -16L27.7 16L0 32L-27.7 16L-27.7 -16Z" fill="#e3e3e3"></path></g><g transform="translate(190 554)"><path d="M0 -18L15.6 -9L15.6 9L0 18L-15.6 9L-15.6 -9Z" fill="#e3e3e3"></path></g><g transform="translate(367 79)"><path d="M0 -33L28.6 -16.5L28.6 16.5L0 33L-28.6 16.5L-28.6 -16.5Z" fill="#e3e3e3"></path></g><g transform="translate(601 439)"><path d="M0 -22L19.1 -11L19.1 11L0 22L-19.1 11L-19.1 -11Z" fill="#e3e3e3"></path></g><g transform="translate(519 412)"><path d="M0 -21L18.2 -10.5L18.2 10.5L0 21L-18.2 10.5L-18.2 -10.5Z" fill="#e3e3e3"></path></g><g transform="translate(308 415)"><path d="M0 -31L26.8 -15.5L26.8 15.5L0 31L-26.8 15.5L-26.8 -15.5Z" fill="#e3e3e3"></path></g><g transform="translate(231 312)"><path d="M0 -21L18.2 -10.5L18.2 10.5L0 21L-18.2 10.5L-18.2 -10.5Z" fill="#e3e3e3"></path></g><g transform="translate(543 541)"><path d="M0 -23L19.9 -11.5L19.9 11.5L0 23L-19.9 11.5L-19.9 -11.5Z" fill="#e3e3e3"></path></g><g transform="translate(688 540)"><path d="M0 -27L23.4 -13.5L23.4 13.5L0 27L-23.4 13.5L-23.4 -13.5Z" fill="#e3e3e3"></path></g><g transform="translate(191 139)"><path d="M0 -28L24.2 -14L24.2 14L0 28L-24.2 14L-24.2 -14Z" fill="#e3e3e3"></path></g><g transform="translate(656 393)"><path d="M0 -27L23.4 -13.5L23.4 13.5L0 27L-23.4 13.5L-23.4 -13.5Z" fill="#e3e3e3"></path></g><g transform="translate(789 55)"><path d="M0 -28L24.2 -14L24.2 14L0 28L-24.2 14L-24.2 -14Z" fill="#e3e3e3"></path></g><g transform="translate(659 9)"><path d="M0 -33L28.6 -16.5L28.6 16.5L0 33L-28.6 16.5L-28.6 -16.5Z" fill="#e3e3e3"></path></g><g transform="translate(85 499)"><path d="M0 -28L24.2 -14L24.2 14L0 28L-24.2 14L-24.2 -14Z" fill="#e3e3e3"></path></g><g transform="translate(294 596)"><path d="M0 -22L19.1 -11L19.1 11L0 22L-19.1 11L-19.1 -11Z" fill="#e3e3e3"></path></g><g transform="translate(858 73)"><path d="M0 -29L25.1 -14.5L25.1 14.5L0 29L-25.1 14.5L-25.1 -14.5Z" fill="#e3e3e3"></path></g><g transform="translate(400 15)"><path d="M0 -25L21.7 -12.5L21.7 12.5L0 25L-21.7 12.5L-21.7 -12.5Z" fill="#e3e3e3"></path></g><g transform="translate(33 403)"><path d="M0 -30L26 -15L26 15L0 30L-26 15L-26 -15Z" fill="#e3e3e3"></path></g><g transform="translate(203 226)"><path d="M0 -24L20.8 -12L20.8 12L0 24L-20.8 12L-20.8 -12Z" fill="#e3e3e3"></path></g><g transform="translate(415 295)"><path d="M0 -23L19.9 -11.5L19.9 11.5L0 23L-19.9 11.5L-19.9 -11.5Z" fill="#e3e3e3"></path></g><g transform="translate(765 375)"><path d="M0 -21L18.2 -10.5L18.2 10.5L0 21L-18.2 10.5L-18.2 -10.5Z" fill="#e3e3e3"></path></g><g transform="translate(551 118)"><path d="M0 -19L16.5 -9.5L16.5 9.5L0 19L-16.5 9.5L-16.5 -9.5Z" fill="#e3e3e3"></path></g><g transform="translate(717 238)"><path d="M0 -18L15.6 -9L15.6 9L0 18L-15.6 9L-15.6 -9Z" fill="#e3e3e3"></path></g><g transform="translate(897 140)"><path d="M0 -22L19.1 -11L19.1 11L0 22L-19.1 11L-19.1 -11Z" fill="#e3e3e3"></path></g><g transform="translate(641 166)"><path d="M0 -20L17.3 -10L17.3 10L0 20L-17.3 10L-17.3 -10Z" fill="#e3e3e3"></path></g><g transform="translate(464 81)"><path d="M0 -28L24.2 -14L24.2 14L0 28L-24.2 14L-24.2 -14Z" fill="#e3e3e3"></path></g><g transform="translate(484 501)"><path d="M0 -31L26.8 -15.5L26.8 15.5L0 31L-26.8 15.5L-26.8 -15.5Z" fill="#e3e3e3"></path></g><g transform="translate(132 30)"><path d="M0 -18L15.6 -9L15.6 9L0 18L-15.6 9L-15.6 -9Z" fill="#e3e3e3"></path></g><g transform="translate(8 102)"><path d="M0 -17L14.7 -8.5L14.7 8.5L0 17L-14.7 8.5L-14.7 -8.5Z" fill="#e3e3e3"></path></g><g transform="translate(652 306)"><path d="M0 -31L26.8 -15.5L26.8 15.5L0 31L-26.8 15.5L-26.8 -15.5Z" fill="#e3e3e3"></path></g><g transform="translate(824 319)"><path d="M0 -28L24.2 -14L24.2 14L0 28L-24.2 14L-24.2 -14Z" fill="#e3e3e3"></path></g><g transform="translate(796 253)"><path d="M0 -28L24.2 -14L24.2 14L0 28L-24.2 14L-24.2 -14Z" fill="#e3e3e3"></path></g><g transform="translate(371 350)"><path d="M0 -17L14.7 -8.5L14.7 8.5L0 17L-14.7 8.5L-14.7 -8.5Z" fill="#e3e3e3"></path></g><g transform="translate(264 530)"><path d="M0 -25L21.7 -12.5L21.7 12.5L0 25L-21.7 12.5L-21.7 -12.5Z" fill="#e3e3e3"></path></g><g transform="translate(851 558)"><path d="M0 -25L21.7 -12.5L21.7 12.5L0 25L-21.7 12.5L-21.7 -12.5Z" fill="#e3e3e3"></path></g><g transform="translate(461 355)"><path d="M0 -28L24.2 -14L24.2 14L0 28L-24.2 14L-24.2 -14Z" fill="#e3e3e3"></path></g><g transform="translate(330 270)"><path d="M0 -25L21.7 -12.5L21.7 12.5L0 25L-21.7 12.5L-21.7 -12.5Z" fill="#e3e3e3"></path></g><g transform="translate(18 200)"><path d="M0 -21L18.2 -10.5L18.2 10.5L0 21L-18.2 10.5L-18.2 -10.5Z" fill="#e3e3e3"></path></g><g transform="translate(721 455)"><path d="M0 -33L28.6 -16.5L28.6 16.5L0 33L-28.6 16.5L-28.6 -16.5Z" fill="#e3e3e3"></path></g><g transform="translate(534 205)"><path d="M0 -22L19.1 -11L19.1 11L0 22L-19.1 11L-19.1 -11Z" fill="#e3e3e3"></path></g><g transform="translate(715 79)"><path d="M0 -30L26 -15L26 15L0 30L-26 15L-26 -15Z" fill="#e3e3e3"></path></g><g transform="translate(130 194)"><path d="M0 -33L28.6 -16.5L28.6 16.5L0 33L-28.6 16.5L-28.6 -16.5Z" fill="#e3e3e3"></path></g><g transform="translate(897 413)"><path d="M0 -20L17.3 -10L17.3 10L0 20L-17.3 10L-17.3 -10Z" fill="#e3e3e3"></path></g><g transform="translate(414 516)"><path d="M0 -18L15.6 -9L15.6 9L0 18L-15.6 9L-15.6 -9Z" fill="#e3e3e3"></path></g><g transform="translate(56 48)"><path d="M0 -20L17.3 -10L17.3 10L0 20L-17.3 10L-17.3 -10Z" fill="#e3e3e3"></path></g><g transform="translate(30 544)"><path d="M0 -31L26.8 -15.5L26.8 15.5L0 31L-26.8 15.5L-26.8 -15.5Z" fill="#e3e3e3"></path></g><g transform="translate(324 9)"><path d="M0 -33L28.6 -16.5L28.6 16.5L0 33L-28.6 16.5L-28.6 -16.5Z" fill="#e3e3e3"></path></g><g transform="translate(601 598)"><path d="M0 -31L26.8 -15.5L26.8 15.5L0 31L-26.8 15.5L-26.8 -15.5Z" fill="#e3e3e3"></path></g><g transform="translate(391 596)"><path d="M0 -19L16.5 -9.5L16.5 9.5L0 19L-16.5 9.5L-16.5 -9.5Z" fill="#e3e3e3"></path></g><g transform="translate(494 17)"><path d="M0 -26L22.5 -13L22.5 13L0 26L-22.5 13L-22.5 -13Z" fill="#e3e3e3"></path></g><g transform="translate(885 3)"><path d="M0 -22L19.1 -11L19.1 11L0 22L-19.1 11L-19.1 -11Z" fill="#e3e3e3"></path></g><g transform="translate(898 316)"><path d="M0 -29L25.1 -14.5L25.1 14.5L0 29L-25.1 14.5L-25.1 -14.5Z" fill="#e3e3e3"></path></g><g transform="translate(297 344)"><path d="M0 -31L26.8 -15.5L26.8 15.5L0 31L-26.8 15.5L-26.8 -15.5Z" fill="#e3e3e3"></path></g><g transform="translate(741 592)"><path d="M0 -23L19.9 -11.5L19.9 11.5L0 23L-19.9 11.5L-19.9 -11.5Z" fill="#e3e3e3"></path></g><g transform="translate(724 309)"><path d="M0 -30L26 -15L26 15L0 30L-26 15L-26 -15Z" fill="#e3e3e3"></path></g><g transform="translate(297 109)"><path d="M0 -20L17.3 -10L17.3 10L0 20L-17.3 10L-17.3 -10Z" fill="#e3e3e3"></path></g><g transform="translate(168 344)"><path d="M0 -32L27.7 -16L27.7 16L0 32L-27.7 16L-27.7 -16Z" fill="#e3e3e3"></path></g><g transform="translate(712 157)"><path d="M0 -21L18.2 -10.5L18.2 10.5L0 21L-18.2 10.5L-18.2 -10.5Z" fill="#e3e3e3"></path></g><g transform="translate(18 473)"><path d="M0 -21L18.2 -10.5L18.2 10.5L0 21L-18.2 10.5L-18.2 -10.5Z" fill="#e3e3e3"></path></g><g transform="translate(740 4)"><path d="M0 -32L27.7 -16L27.7 16L0 32L-27.7 16L-27.7 -16Z" fill="#e3e3e3"></path></g><g transform="translate(236 386)"><path d="M0 -32L27.7 -16L27.7 16L0 32L-27.7 16L-27.7 -16Z" fill="#e3e3e3"></path></g><g transform="translate(251 462)"><path d="M0 -24L20.8 -12L20.8 12L0 24L-20.8 12L-20.8 -12Z" fill="#e3e3e3"></path></g></g></svg>